<svg xmlns="http://www.w3.org/2000/svg" width="80.283" height="47.38"><defs><style>.cls-1{fill:#02dfb4}</style></defs><g id="Ebene_2" data-name="Ebene 2"><g id="cont"><path class="cls-1" d="M16.248 23.618L.623 2.521C.335 2.16 1.343.216 3.215.216a3.487 3.487 0 0 1 2.736 1.44l13.321 18.506 13.897-18.65C34.033.36 34.753 0 35.545 0c1.657 0 2.737 1.944 2.449 2.304L21.937 23.618 37.994 44.86c.288.36-.72 2.305-2.593 2.305a3.592 3.592 0 0 1-2.735-1.44L18.912 26.93 4.872 45.868c-.865 1.152-1.585 1.512-2.377 1.512-1.657 0-2.737-1.944-2.449-2.303zM58.798 27.723L42.237 2.304c-.216-.36.792-2.088 2.952-2.088a2.992 2.992 0 0 1 2.448 1.657l13.681 21.385 13.61-21.314A3.1 3.1 0 0 1 77.375.216c2.016 0 3.096 1.728 2.88 2.088L63.694 27.723v17.425c0 1.513-.72 2.232-2.16 2.232h-.648c-1.368 0-2.088-.72-2.088-2.232z"/></g></g></svg>